HIERARCHY
ROOT Hips
{
	OFFSET -0.179506 -22.333345 2.821913
	CHANNELS 6 Xposition Yposition Zposition Zrotation Yrotation Xrotation 
	JOINT LeftUpLeg
	{
		OFFSET 6.951974 -9.140623 -0.681533
		CHANNELS 3 Zrotation Yrotation Xrotation
		JOINT LeftLeg
		{
			OFFSET 3.427654 -37.519855 -0.449580
			CHANNELS 3 Zrotation Yrotation Xrotation
			JOINT LeftFoot
			{
				OFFSET -1.359570 -39.796059 -4.369333
				CHANNELS 3 Zrotation Yrotation Xrotation
				JOINT LeftToe
				{
					OFFSET 2.635814 -5.579078 11.928840
					CHANNELS 3 Zrotation Yrotation Xrotation
					End Site
					{
						OFFSET 0.000000 0.000000 0.000000
					}
				}
			}
		}
	}
	JOINT RightUpLeg
	{
		OFFSET -6.767048 -9.052170 -0.431982
		CHANNELS 3 Zrotation Yrotation Xrotation
		JOINT RightLeg
		{
			OFFSET -3.829005 -38.256897 -0.885003
			CHANNELS 3 Zrotation Yrotation Xrotation
			JOINT RightFoot
			{
				OFFSET 1.577377 -39.841461 -4.231180
				CHANNELS 3 Zrotation Yrotation Xrotation
				JOINT RightToe
				{
					OFFSET -2.537174 -4.814398 12.334795
					CHANNELS 3 Zrotation Yrotation Xrotation
					End Site
					{
						OFFSET 0.000000 0.000000 0.000000
					}
				}
			}
		}
	}
	JOINT Spine
	{
		OFFSET -0.253288 10.896323 -2.669631
		CHANNELS 3 Zrotation Yrotation Xrotation
		JOINT Spine1
		{
			OFFSET 0.548704 13.518043 0.109247
			CHANNELS 3 Zrotation Yrotation Xrotation
			JOINT Spine2
			{
				OFFSET 0.145701 5.292222 2.542457
				CHANNELS 3 Zrotation Yrotation Xrotation
				JOINT Neck
				{
					OFFSET -0.277840 21.387037 -4.285703
					CHANNELS 3 Zrotation Yrotation Xrotation
					JOINT Head
					{
						OFFSET 0.515184 6.496960 5.134897
						CHANNELS 3 Zrotation Yrotation Xrotation
						End Site
						{
							OFFSET 0.000000 0.000000 0.000000
						}
					}
				}
				JOINT LeftShoulder
				{
					OFFSET 7.884473 12.174932 -3.408961
					CHANNELS 3 Zrotation Yrotation Xrotation
					JOINT LeftArm
					{
						OFFSET 9.097692 3.046888 -0.886815
						CHANNELS 3 Zrotation Yrotation Xrotation
						JOINT LeftForeArm
						{
							OFFSET 25.961220 -1.277207 -2.745643
							CHANNELS 3 Zrotation Yrotation Xrotation
							JOINT LeftHand
							{
								OFFSET 24.923361 0.898606 -0.117091
								CHANNELS 3 Zrotation Yrotation Xrotation
								End Site
								{
									OFFSET 0.000000 0.000000 0.000000
								}
							}
						}
					}
				}
				JOINT RightShoulder
				{
					OFFSET -8.175920 11.883285 -3.861528
					CHANNELS 3 Zrotation Yrotation Xrotation
					JOINT RightArm
					{
						OFFSET -9.601238 3.255117 -0.914307
						CHANNELS 3 Zrotation Yrotation Xrotation
						JOINT RightForeArm
						{
							OFFSET -25.374195 -1.332924 -2.140099
							CHANNELS 3 Zrotation Yrotation Xrotation
							JOINT RightHand
							{
								OFFSET -25.529810 0.777228 -0.555919
								CHANNELS 3 Zrotation Yrotation Xrotation
								End Site
								{
									OFFSET 0.000000 0.000000 0.000000
								}
							}
						}
					}
				}
			}
		}
	}
}
MOTION
Frames: 15
Frame Time: 0.033333
27.212811 16.908083 91.141441 -108.430548 3.592758 80.187257 23.586182 10.185909 0.590136 -0.747378 10.685217 32.481339 -4.931138 0.216541 -23.397022 nan nan nan -14.984172 -8.021705 -8.917431 -0.707330 -6.187483 24.462661 8.664973 5.673755 -12.879605 nan nan nan -6.191297 3.493655 9.705832 7.408511 -6.065722 10.850130 2.447749 0.695564 -3.805847 2.032392 -12.440510 9.989189 8.382540 -29.947148 13.151917 -4.075372 -16.796579 -3.013549 -76.878933 -45.634010 30.961382 145.964317 -85.591333 -117.824593 14.841486 -32.126413 -42.691984 16.515026 5.839260 2.816062 50.799501 9.948344 -6.767238 -85.881302 46.526304 -68.403781 0.962881 21.932375 -28.318784 
27.225210 16.957542 91.080246 -108.371045 3.573775 80.214929 23.611730 10.199418 0.460711 -0.790498 10.559029 32.644924 -4.882723 0.209349 -23.517536 nan nan nan -15.032112 -8.139450 -9.201277 -0.716298 -6.230123 25.000287 8.585616 5.867061 -13.250523 nan nan nan -6.068497 3.445153 9.884959 7.324895 -5.999480 10.527352 2.404978 0.575938 -3.679143 2.004470 -12.462434 9.860316 8.274362 -30.038391 13.282009 -4.055572 -16.760615 -3.029472 -76.829561 -45.503729 30.892377 147.044262 -85.554680 -118.947360 14.888277 -31.861317 -42.679509 16.477904 5.813793 2.902678 50.923988 9.827552 -6.710697 -86.037307 46.680090 -68.594764 0.040925 21.960133 -28.471603 
27.253275 17.014366 91.006020 -108.374836 3.511703 80.228450 23.609312 10.252376 0.347645 -0.868327 10.362651 32.856694 -4.882332 0.205266 -23.681194 nan nan nan -15.058698 -8.236307 -9.617609 -0.806458 -6.159283 25.736447 8.526853 5.865767 -13.423375 nan nan nan -6.037843 3.506872 10.074682 7.290997 -5.867117 10.305631 2.398301 0.389915 -3.609901 2.059627 -12.472688 9.568621 8.059911 -30.062578 13.580307 -4.009603 -16.823014 -3.042416 -76.861860 -45.324624 30.894488 146.800731 -85.394266 -118.458617 14.899341 -31.645512 -42.663643 16.415576 5.799397 2.755866 51.007968 9.694618 -6.715307 -86.173407 46.716383 -68.579732 0.868346 22.017316 -28.186255 
27.283840 17.076384 90.920578 -108.461357 3.453226 80.201911 23.653498 10.269349 0.299022 -0.951737 10.271581 33.093008 -4.897952 0.266230 -23.817224 nan nan nan -15.053279 -8.152242 -10.021864 -0.910186 -6.102406 26.476198 8.363311 5.674278 -13.480793 nan nan nan -6.101726 3.555080 10.244419 7.320262 -5.724022 10.145318 2.409665 0.327678 -3.503230 2.120176 -12.472840 9.371103 7.922243 -30.061614 13.686589 -4.026834 -16.887862 -2.984298 -76.826906 -45.397677 30.893241 146.063547 -85.436222 -117.412950 15.259545 -31.566999 -43.067502 16.349730 5.791751 2.652744 51.156869 9.610346 -6.523936 -86.124789 46.756446 -68.507901 0.627775 22.061253 -29.040615 
27.297022 17.148102 90.821899 -108.536420 3.379142 80.173113 23.708912 10.238212 0.261561 -0.973827 10.368808 33.338387 -4.856253 0.273488 -23.948982 nan nan nan -15.098536 -8.077878 -10.412812 -0.949326 -6.044921 27.233696 8.190664 5.672947 -13.903576 nan nan nan -6.162686 3.540047 10.288121 7.318660 -5.696248 10.152648 2.349690 0.388140 -3.406783 2.195953 -12.413056 9.324076 7.916753 -30.196723 13.527155 -4.067203 -16.882330 -3.004854 -76.652445 -45.516026 30.811934 146.073319 -85.576986 -117.328959 15.406335 -31.556792 -43.387572 16.383258 5.811747 2.686981 51.195056 9.652480 -6.442764 -86.186058 46.727023 -68.254197 0.237669 22.062888 -29.046143 
27.301868 17.230087 90.708435 -108.589257 3.258594 80.216097 23.719023 10.268734 0.123303 -0.968263 10.492832 33.644456 -4.799177 0.195692 -24.103405 nan nan nan -15.185884 -8.058300 -10.941411 -0.984651 -5.966166 28.114345 8.073643 5.814617 -14.565340 nan nan nan -6.249195 3.472483 10.147520 7.271031 -5.731605 10.361634 2.257409 0.470574 -3.364551 2.312613 -12.245564 9.301105 8.010057 -30.301504 13.250110 -4.020324 -16.777891 -3.188190 -76.566425 -45.511954 30.782743 146.274753 -85.721370 -117.602375 15.508814 -31.513808 -43.297339 16.417380 5.791927 2.677794 51.200632 9.778901 -6.454564 -86.235870 46.864596 -68.050130 0.155008 21.988871 -28.605782 
27.324282 17.320211 90.591911 -108.665600 3.100319 80.227328 23.704719 10.307672 0.021720 -0.988909 10.588950 33.937209 -4.819188 0.132095 -24.196242 nan nan nan -15.316342 -8.006045 -11.503413 -1.125874 -6.032281 29.092197 8.000516 5.949382 -14.832661 nan nan nan -6.356970 3.466019 10.151638 7.210327 -5.689465 10.435860 2.209264 0.503428 -3.333165 2.416109 -12.042763 9.252060 8.035280 -30.366438 13.027263 -3.929557 -16.720925 -3.285707 -76.559252 -45.546428 30.735389 146.071482 -85.926916 -117.461042 15.771299 -31.444030 -43.143352 16.467362 5.752055 2.695972 51.230281 9.872293 -6.382532 -86.337743 46.979288 -68.081609 -1.286129 22.046586 -28.564990 
27.358076 17.429386 90.467323 -108.779481 2.946813 80.175759 23.730061 10.325740 0.020303 -1.043410 10.657993 34.191374 -4.832050 0.054836 -24.350064 nan nan nan -15.433741 -7.860250 -12.021460 -1.284752 -6.105557 30.087124 8.017225 6.043339 -15.079342 nan nan nan -6.458613 3.548715 10.359802 7.176464 -5.510767 10.289266 2.195966 0.388064 -3.252096 2.503807 -11.902697 9.110460 7.918711 -30.378257 12.955338 -3.848105 -16.696065 -3.293607 -76.532243 -45.591743 30.721819 144.511202 -86.108723 -115.996205 16.046850 -31.546639 -42.958977 16.511599 5.748755 2.712757 51.321336 9.853141 -6.127038 -86.456198 46.937682 -68.381491 -2.448078 22.384266 -28.641347 
27.377373 17.550856 90.329552 -108.863870 2.813011 80.188575 23.767576 10.344666 -0.046156 -1.124967 10.685057 34.441875 -4.874480 -0.012076 -24.522291 nan nan nan -15.489577 -7.630920 -12.589564 -1.362158 -6.052145 31.058020 8.021038 5.956540 -15.522652 nan nan nan -6.582042 3.615412 10.546078 7.195669 -5.271907 10.090558 2.189185 0.224500 -3.214103 2.553556 -11.917256 8.932445 7.781668 -30.261585 13.004774 -3.818985 -16.672852 -3.327864 -76.497466 -45.563360 30.782630 141.515396 -86.275516 -113.003090 16.086890 -31.841396 -42.785983 16.468359 5.707878 2.576921 51.368655 9.634474 -5.888974 -86.457912 47.058538 -68.325006 -0.818730 22.719161 -28.398798 
27.386219 17.687965 90.172447 -108.913244 2.680113 80.215833 23.835362 10.370339 -0.166077 -1.234140 10.717479 34.735939 -4.915682 -0.029414 -24.649175 nan nan nan -15.511946 -7.402654 -13.183213 -1.440093 -5.952855 32.074564 7.837154 5.785386 -16.041897 nan nan nan -6.666645 3.614105 10.719197 7.170941 -5.126773 9.876897 2.140066 0.143805 -3.184587 2.563495 -11.759637 8.851071 7.746562 -30.312418 13.016569 -3.827360 -16.584464 -3.335792 -76.301456 -45.590926 30.648186 142.380576 -86.621957 -113.991685 16.600614 -31.808497 -42.899744 16.481899 5.627509 2.642386 51.448751 9.620169 -5.634235 -86.493138 47.330989 -68.217888 -2.187846 22.345243 -27.789529 
27.396170 17.822651 89.991402 -108.989933 2.487223 80.254602 23.873146 10.401511 -0.294257 -1.406805 10.758418 35.034783 -4.834264 0.046982 -24.789235 nan nan nan -15.600652 -7.267394 -13.872500 -1.529723 -5.831523 33.238278 7.576927 5.695268 -16.635674 nan nan nan -6.752089 3.584254 10.827471 7.071042 -5.051204 9.747630 2.034517 0.175410 -3.181298 2.537632 -11.613461 8.883057 7.772482 -30.431762 13.023481 -3.894864 -16.606086 -3.335234 -75.913269 -45.513928 30.444064 144.717054 -86.783057 -116.549828 17.053791 -31.520955 -42.627626 16.540014 5.686408 2.780839 51.511142 9.589014 -5.520763 -86.610090 47.589666 -68.115403 -3.259775 22.008947 -26.850496 
27.410067 17.967825 89.800514 -109.005904 2.299151 80.346603 23.899268 10.406388 -0.547875 -1.581108 10.750598 35.407463 -4.775349 0.117215 -24.925764 nan nan nan -15.737372 -7.254859 -14.558478 -1.567807 -5.777200 34.371561 7.454341 5.836534 -17.303232 nan nan nan -6.832366 3.538666 10.942518 6.957052 -5.007916 9.534245 1.919890 0.219760 -3.179335 2.572502 -11.463830 8.985504 7.812889 -30.580113 12.925039 -3.985215 -16.615981 -3.305508 -75.583799 -45.347895 30.360591 146.131398 -86.897190 -118.124626 17.315643 -31.119805 -42.316328 16.642975 5.671416 2.903460 51.502220 9.533448 -5.468959 -86.611489 47.734060 -67.915550 -4.579700 21.636412 -26.446593 
27.420738 18.144941 89.612297 -109.002545 2.106268 80.414006 23.940361 10.467476 -0.789938 -1.738292 10.680088 35.815191 -4.832648 0.139289 -25.031334 nan nan nan -15.880943 -7.367673 -15.179806 -1.586423 -5.673998 35.448312 7.513922 6.230545 -18.023441 nan nan nan -6.984399 3.462245 11.147699 6.883346 -4.992222 9.175030 1.826140 0.306367 -3.086328 2.611633 -11.296288 9.074253 7.887308 -30.647978 12.734211 -3.939217 -16.525614 -3.346575 -75.529000 -45.196959 30.525339 143.355046 -87.103375 -115.499166 17.661114 -30.819272 -42.807445 16.775202 5.534725 2.885340 51.391966 9.502519 -5.415231 -86.579771 48.062804 -67.597288 -4.447548 21.749522 -26.297848 
27.436218 18.355375 89.412399 -109.114201 1.820550 80.481321 23.949064 10.582051 -0.929646 -1.917934 10.724915 36.181380 -4.823806 0.183173 -25.177772 nan nan nan -16.053205 -7.334644 -15.908354 -1.662059 -5.513378 36.636629 7.470345 6.543578 -18.678301 nan nan nan -7.201434 3.448827 11.226290 6.790390 -4.934350 8.935894 1.714012 0.355333 -2.985966 2.613139 -11.062109 9.170731 7.968499 -30.726535 12.574823 -3.773901 -16.469432 -3.392458 -75.394737 -45.135230 30.515828 140.214988 -87.275234 -112.612392 17.925465 -30.600650 -42.993544 16.847997 5.475243 2.925227 51.428708 9.547051 -5.288544 -86.594354 48.356910 -67.590138 -4.708621 21.828764 -26.008797 
27.463287 18.590256 89.205750 -109.213605 1.550178 80.560894 23.980868 10.673226 -1.079926 -2.025173 10.823159 36.543104 -4.778674 0.113102 -25.286183 nan nan nan -16.194429 -7.199621 -16.634597 -1.812902 -5.483654 37.844290 7.265746 6.698294 -19.080853 nan nan nan -7.377211 3.439289 11.250189 6.662756 -4.897679 8.947201 1.625198 0.349465 -3.164272 2.560286 -10.861674 9.361638 7.953768 -30.775626 12.467456 -3.729497 -16.512206 -3.295082 -75.012851 -45.005732 30.128803 140.768076 -87.281243 -113.324931 17.183190 -30.451075 -42.148390 16.872243 5.602596 3.113566 51.530895 9.582029 -5.215780 -86.661596 48.511207 -67.641054 -5.488451 21.874743 -25.679126 
